<svg width="150" height="70" viewBox="0 0 445 275" fill="none" xmlns="http://www.w3.org/2000/svg">
<rect width="" height="" fill=""/>
<mask id="path-1-inside-1_3_3" fill="white">
<path d="M149.615 88.2C153.393 83.9596 159.988 83.5959 163.487 88.0688C169.155 95.3139 173.225 103.762 175.364 112.84C178.302 125.307 177.459 138.38 172.946 150.34C168.433 162.299 160.461 172.586 150.079 179.848C139.696 187.11 127.389 191.007 114.775 191.027C102.16 191.046 89.8294 187.188 79.4025 179.959C68.9757 172.729 60.9411 162.467 56.3549 150.522C51.7686 138.576 50.8453 125.506 53.7064 113.03C55.7875 103.954 59.8001 95.5019 65.4147 88.244C68.894 83.7464 75.4995 84.0799 79.3022 88.3077V88.3077C83.022 92.4433 82.609 98.7516 79.5238 103.38C76.638 107.709 74.5392 112.562 73.3585 117.711C71.4211 126.159 72.0463 135.01 75.152 143.099C78.2576 151.188 83.6984 158.137 90.759 163.032C97.8197 167.928 106.17 170.541 114.712 170.527C123.254 170.514 131.588 167.875 138.618 162.958C145.649 158.04 151.047 151.074 154.103 142.976C157.159 134.877 157.73 126.024 155.741 117.582C154.526 112.426 152.391 107.57 149.47 103.244C146.362 98.6415 145.921 92.3463 149.615 88.2V88.2Z"/>
</mask>
<path d="M149.615 88.2C153.393 83.9596 159.988 83.5959 163.487 88.0688C169.155 95.3139 173.225 103.762 175.364 112.84C178.302 125.307 177.459 138.38 172.946 150.34C168.433 162.299 160.461 172.586 150.079 179.848C139.696 187.11 127.389 191.007 114.775 191.027C102.16 191.046 89.8294 187.188 79.4025 179.959C68.9757 172.729 60.9411 162.467 56.3549 150.522C51.7686 138.576 50.8453 125.506 53.7064 113.03C55.7875 103.954 59.8001 95.5019 65.4147 88.244C68.894 83.7464 75.4995 84.0799 79.3022 88.3077V88.3077C83.022 92.4433 82.609 98.7516 79.5238 103.38C76.638 107.709 74.5392 112.562 73.3585 117.711C71.4211 126.159 72.0463 135.01 75.152 143.099C78.2576 151.188 83.6984 158.137 90.759 163.032C97.8197 167.928 106.17 170.541 114.712 170.527C123.254 170.514 131.588 167.875 138.618 162.958C145.649 158.04 151.047 151.074 154.103 142.976C157.159 134.877 157.73 126.024 155.741 117.582C154.526 112.426 152.391 107.57 149.47 103.244C146.362 98.6415 145.921 92.3463 149.615 88.2V88.2Z" fill="#FFE600" stroke="white" stroke-width="2" mask="url(#path-1-inside-1_3_3)"/>
<path fill-rule="evenodd" clip-rule="evenodd" d="M92.9769 62.3196C96.2128 62.2691 99.002 64.2756 100.098 67.1309L129.042 108.653L128.44 70.0933L128.323 62.5943L143.321 62.3599L143.438 69.859L144.344 127.862C144.409 132.004 141.104 135.413 136.963 135.478C136.551 135.485 136.146 135.458 135.752 135.4C132.719 136.333 129.306 135.261 127.394 132.518L100.983 94.6301L101.499 127.704L101.617 135.204L86.6184 135.438L86.5013 127.939L85.6214 71.629C85.0572 69.1271 85.8105 66.4476 87.6996 64.6082C89.036 63.2245 90.9014 62.3521 92.9769 62.3196Z" fill="white"/>
<path d="M195.943 135.976V108.398H200.748L213.619 130.019L214.048 129.921C214.035 129.505 214.022 129.03 214.009 128.496C214.009 127.949 214.003 127.389 213.99 126.816C213.977 126.23 213.964 125.651 213.951 125.078C213.951 124.505 213.944 123.977 213.931 123.496C213.931 123.001 213.931 122.578 213.931 122.226C213.931 121.875 213.931 121.627 213.931 121.484V108.398H217.525V135.976H212.896L199.771 114.043L199.361 114.14C199.374 114.57 199.38 115.058 199.38 115.605C199.393 116.152 199.407 116.725 199.42 117.324C199.433 117.91 199.439 118.502 199.439 119.101C199.452 119.687 199.459 120.227 199.459 120.722C199.472 121.217 199.478 121.653 199.478 122.031C199.478 122.395 199.478 122.649 199.478 122.793V135.976H195.943ZM238.99 134.355C238.573 134.602 238.13 134.85 237.662 135.097C237.206 135.332 236.692 135.54 236.119 135.722C235.546 135.905 234.901 136.054 234.185 136.171C233.482 136.289 232.681 136.347 231.783 136.347C230.416 136.347 229.179 136.119 228.072 135.664C226.978 135.208 226.041 134.544 225.259 133.671C224.491 132.786 223.899 131.705 223.482 130.429C223.065 129.14 222.857 127.669 222.857 126.015C222.857 124.635 223.026 123.32 223.365 122.07C223.703 120.82 224.218 119.72 224.908 118.769C225.611 117.819 226.503 117.063 227.584 116.504C228.664 115.931 229.947 115.644 231.431 115.644C232.837 115.644 234.048 115.892 235.064 116.386C236.08 116.881 236.913 117.552 237.564 118.398C238.228 119.231 238.716 120.214 239.029 121.347C239.341 122.467 239.498 123.658 239.498 124.921V126.543H226.49C226.503 127.441 226.601 128.313 226.783 129.16C226.978 129.993 227.284 130.735 227.701 131.386C228.117 132.024 228.664 132.539 229.341 132.929C230.018 133.307 230.858 133.496 231.861 133.496C233.059 133.496 234.14 133.346 235.103 133.046C236.08 132.747 237.004 132.324 237.877 131.777L238.99 134.355ZM231.353 118.496C230.728 118.496 230.142 118.593 229.595 118.789C229.061 118.971 228.586 119.264 228.17 119.668C227.766 120.058 227.427 120.559 227.154 121.171C226.893 121.77 226.718 122.487 226.627 123.32C226.614 123.385 226.607 123.476 226.607 123.593C226.607 123.711 226.607 123.834 226.607 123.964H235.67C235.643 123.248 235.559 122.558 235.416 121.894C235.272 121.23 235.038 120.651 234.712 120.156C234.387 119.648 233.951 119.244 233.404 118.945C232.857 118.645 232.173 118.496 231.353 118.496ZM249.283 125.664L242.388 115.976H246.861L251.724 123.379L256.646 115.976H260.904L253.834 125.781L261.041 135.976H256.568L251.392 128.222L246.197 135.976H242.017L249.283 125.664ZM271.998 133.496C272.362 133.496 272.759 133.47 273.189 133.418C273.632 133.365 274.003 133.307 274.302 133.242V135.937C273.899 136.041 273.404 136.132 272.818 136.211C272.245 136.302 271.666 136.347 271.08 136.347C270.285 136.347 269.563 136.263 268.912 136.093C268.274 135.937 267.727 135.657 267.271 135.254C266.828 134.85 266.483 134.309 266.236 133.632C266.002 132.942 265.884 132.083 265.884 131.054V118.867H262.818V115.957H265.982L266.627 111.191L269.576 110.546V115.957H274.224V118.867H269.576V130.625C269.576 131.002 269.602 131.367 269.654 131.718C269.719 132.07 269.836 132.376 270.005 132.636C270.188 132.897 270.435 133.105 270.748 133.261C271.06 133.418 271.477 133.496 271.998 133.496ZM294.127 135.976L286.548 108.398H290.611C291.184 110.677 291.77 112.975 292.369 115.293C292.981 117.61 293.573 119.902 294.146 122.168C294.198 122.415 294.276 122.793 294.38 123.3C294.485 123.795 294.602 124.355 294.732 124.98C294.862 125.605 294.992 126.256 295.123 126.933C295.253 127.61 295.37 128.242 295.474 128.828C295.591 129.414 295.683 129.928 295.748 130.371C295.826 130.8 295.865 131.087 295.865 131.23L296.353 131.289L296.92 128.847C297.323 127.181 297.688 125.683 298.013 124.355C298.352 123.027 298.664 121.803 298.951 120.683C299.237 119.563 299.511 118.522 299.771 117.558C300.045 116.582 300.311 115.618 300.572 114.668C300.832 113.704 301.099 112.721 301.373 111.718C301.659 110.703 301.965 109.596 302.291 108.398H306.646L310.591 123.046C310.748 123.528 310.923 124.101 311.119 124.765C311.314 125.416 311.503 126.087 311.685 126.777C311.867 127.467 312.03 128.131 312.173 128.769C312.317 129.407 312.408 129.948 312.447 130.39L312.955 130.429L313.775 126.757C313.892 126.25 314.003 125.748 314.107 125.254C314.224 124.746 314.328 124.283 314.42 123.867C314.511 123.45 314.589 123.092 314.654 122.793C314.732 122.493 314.791 122.278 314.83 122.148L318.248 108.398H322.134L314.537 135.976H310.533L308.99 130.312C308.599 128.854 308.196 127.395 307.779 125.937C307.375 124.479 306.985 123.02 306.607 121.562C306.555 121.38 306.47 121.061 306.353 120.605C306.249 120.149 306.125 119.629 305.982 119.043C305.852 118.444 305.709 117.819 305.552 117.168C305.409 116.504 305.272 115.879 305.142 115.293C305.025 114.694 304.927 114.173 304.849 113.73C304.771 113.274 304.732 112.962 304.732 112.793L304.224 112.754L301.978 121.621L298.052 135.976H294.127ZM339.615 134.355C339.198 134.602 338.755 134.85 338.287 135.097C337.831 135.332 337.317 135.54 336.744 135.722C336.171 135.905 335.526 136.054 334.81 136.171C334.107 136.289 333.306 136.347 332.408 136.347C331.041 136.347 329.804 136.119 328.697 135.664C327.603 135.208 326.666 134.544 325.884 133.671C325.116 132.786 324.524 131.705 324.107 130.429C323.69 129.14 323.482 127.669 323.482 126.015C323.482 124.635 323.651 123.32 323.99 122.07C324.328 120.82 324.843 119.72 325.533 118.769C326.236 117.819 327.128 117.063 328.209 116.504C329.289 115.931 330.572 115.644 332.056 115.644C333.462 115.644 334.673 115.892 335.689 116.386C336.705 116.881 337.538 117.552 338.189 118.398C338.853 119.231 339.341 120.214 339.654 121.347C339.966 122.467 340.123 123.658 340.123 124.921V126.543H327.115C327.128 127.441 327.226 128.313 327.408 129.16C327.603 129.993 327.909 130.735 328.326 131.386C328.742 132.024 329.289 132.539 329.966 132.929C330.643 133.307 331.483 133.496 332.486 133.496C333.684 133.496 334.765 133.346 335.728 133.046C336.705 132.747 337.629 132.324 338.502 131.777L339.615 134.355ZM331.978 118.496C331.353 118.496 330.767 118.593 330.22 118.789C329.686 118.971 329.211 119.264 328.795 119.668C328.391 120.058 328.052 120.559 327.779 121.171C327.518 121.77 327.343 122.487 327.252 123.32C327.239 123.385 327.232 123.476 327.232 123.593C327.232 123.711 327.232 123.834 327.232 123.964H336.295C336.268 123.248 336.184 122.558 336.041 121.894C335.897 121.23 335.663 120.651 335.337 120.156C335.012 119.648 334.576 119.244 334.029 118.945C333.482 118.645 332.798 118.496 331.978 118.496ZM345.025 108.379H348.716L348.677 115.332L348.619 118.574C348.892 118.209 349.205 117.851 349.556 117.5C349.921 117.148 350.324 116.836 350.767 116.562C351.223 116.289 351.724 116.067 352.271 115.898C352.818 115.729 353.423 115.644 354.087 115.644C355.611 115.644 356.907 115.918 357.974 116.464C359.055 116.998 359.934 117.727 360.611 118.652C361.301 119.576 361.802 120.651 362.115 121.875C362.44 123.099 362.603 124.401 362.603 125.781C362.603 127.278 362.44 128.671 362.115 129.961C361.802 131.25 361.295 132.369 360.591 133.32C359.901 134.257 359.009 135 357.916 135.546C356.822 136.08 355.5 136.347 353.951 136.347C353.521 136.347 353.072 136.289 352.603 136.171C352.147 136.067 351.679 135.898 351.197 135.664C350.728 135.416 350.259 135.097 349.791 134.707C349.335 134.316 348.905 133.847 348.502 133.3C348.476 133.47 348.443 133.704 348.404 134.004C348.365 134.29 348.332 134.583 348.306 134.882C348.254 135.221 348.215 135.586 348.189 135.976H345.025V108.379ZM348.677 129.121C348.677 129.563 348.782 130.039 348.99 130.546C349.198 131.054 349.517 131.53 349.947 131.972C350.377 132.402 350.93 132.767 351.607 133.066C352.284 133.352 353.091 133.496 354.029 133.496C354.94 133.496 355.715 133.287 356.353 132.871C356.991 132.454 357.512 131.894 357.916 131.191C358.319 130.488 358.606 129.681 358.775 128.769C358.957 127.858 359.048 126.901 359.048 125.898C359.048 124.987 358.97 124.088 358.814 123.203C358.671 122.304 358.41 121.51 358.033 120.82C357.655 120.13 357.128 119.57 356.451 119.14C355.787 118.711 354.94 118.496 353.912 118.496C353.222 118.496 352.564 118.632 351.939 118.906C351.314 119.179 350.754 119.531 350.259 119.961C349.778 120.377 349.393 120.833 349.107 121.328C348.821 121.823 348.677 122.291 348.677 122.734V129.121Z" fill="white"/>
<path d="M193.808 143.292V141.885H203.627V143.292H199.51V154.976H197.925V143.292H193.808ZM207.377 149.07V154.976H205.869V141.885H207.377V146.692H207.505C207.735 146.185 208.08 145.782 208.54 145.484C209.005 145.181 209.623 145.03 210.394 145.03C211.063 145.03 211.649 145.164 212.152 145.433C212.655 145.697 213.045 146.104 213.322 146.654C213.603 147.199 213.744 147.894 213.744 148.738V154.976H212.235V148.84C212.235 148.06 212.033 147.457 211.628 147.031C211.227 146.6 210.671 146.385 209.959 146.385C209.465 146.385 209.022 146.49 208.63 146.698C208.242 146.907 207.935 147.212 207.709 147.613C207.488 148.013 207.377 148.499 207.377 149.07ZM220.62 155.181C219.674 155.181 218.858 154.972 218.172 154.554C217.49 154.132 216.964 153.544 216.593 152.79C216.226 152.032 216.043 151.149 216.043 150.144C216.043 149.138 216.226 148.252 216.593 147.485C216.964 146.713 217.479 146.113 218.14 145.682C218.804 145.247 219.58 145.03 220.466 145.03C220.978 145.03 221.483 145.115 221.981 145.286C222.48 145.456 222.934 145.733 223.343 146.117C223.752 146.496 224.078 146.999 224.321 147.625C224.564 148.252 224.685 149.023 224.685 149.939V150.578H217.117V149.274H223.151C223.151 148.72 223.04 148.226 222.819 147.792C222.601 147.357 222.29 147.014 221.885 146.762C221.485 146.511 221.012 146.385 220.466 146.385C219.866 146.385 219.346 146.534 218.907 146.833C218.472 147.127 218.138 147.51 217.903 147.983C217.669 148.456 217.552 148.963 217.552 149.505V150.374C217.552 151.115 217.679 151.744 217.935 152.26C218.195 152.771 218.555 153.161 219.015 153.429C219.476 153.693 220.01 153.826 220.62 153.826C221.016 153.826 221.374 153.77 221.694 153.659C222.018 153.544 222.297 153.374 222.531 153.148C222.765 152.918 222.947 152.632 223.074 152.292L224.532 152.701C224.378 153.195 224.121 153.63 223.758 154.005C223.396 154.375 222.949 154.665 222.416 154.874C221.883 155.078 221.285 155.181 220.62 155.181ZM232.247 154.976V141.885H236.824C237.736 141.885 238.488 142.043 239.08 142.358C239.672 142.669 240.113 143.089 240.403 143.618C240.693 144.142 240.838 144.723 240.838 145.363C240.838 145.925 240.738 146.39 240.537 146.756C240.341 147.122 240.081 147.412 239.758 147.625C239.438 147.838 239.091 147.996 238.716 148.098V148.226C239.116 148.252 239.519 148.392 239.924 148.648C240.329 148.904 240.667 149.27 240.94 149.747C241.213 150.225 241.349 150.809 241.349 151.499C241.349 152.155 241.2 152.745 240.902 153.269C240.603 153.794 240.133 154.209 239.489 154.516C238.846 154.823 238.008 154.976 236.977 154.976H232.247ZM233.832 153.57H236.977C238.013 153.57 238.748 153.37 239.182 152.969C239.621 152.564 239.841 152.074 239.841 151.499C239.841 151.056 239.728 150.647 239.502 150.272C239.276 149.892 238.954 149.59 238.537 149.364C238.119 149.134 237.625 149.019 237.054 149.019H233.832V153.57ZM233.832 147.638H236.773C237.25 147.638 237.68 147.544 238.064 147.357C238.451 147.169 238.758 146.905 238.984 146.564C239.214 146.223 239.329 145.823 239.329 145.363C239.329 144.787 239.129 144.299 238.728 143.899C238.328 143.494 237.693 143.292 236.824 143.292H233.832V147.638ZM249.937 150.962V145.158H251.445V154.976H249.937V153.314H249.835C249.605 153.813 249.247 154.237 248.761 154.586C248.275 154.931 247.661 155.104 246.92 155.104C246.306 155.104 245.761 154.97 245.284 154.701C244.806 154.429 244.431 154.019 244.159 153.474C243.886 152.924 243.749 152.232 243.749 151.397V145.158H245.258V151.294C245.258 152.01 245.458 152.581 245.859 153.007C246.264 153.434 246.779 153.647 247.406 153.647C247.781 153.647 248.162 153.551 248.55 153.359C248.942 153.167 249.27 152.873 249.534 152.477C249.803 152.081 249.937 151.576 249.937 150.962ZM255.717 149.07V154.976H254.208V145.158H255.666V146.692H255.794C256.024 146.193 256.373 145.793 256.842 145.49C257.311 145.184 257.916 145.03 258.657 145.03C259.322 145.03 259.904 145.167 260.402 145.439C260.901 145.708 261.289 146.117 261.566 146.667C261.843 147.212 261.981 147.902 261.981 148.738V154.976H260.473V148.84C260.473 148.068 260.272 147.468 259.872 147.037C259.471 146.603 258.921 146.385 258.223 146.385C257.741 146.385 257.311 146.49 256.931 146.698C256.556 146.907 256.26 147.212 256.043 147.613C255.826 148.013 255.717 148.499 255.717 149.07ZM268.726 155.181C267.806 155.181 267.013 154.963 266.349 154.529C265.684 154.094 265.172 153.495 264.814 152.733C264.456 151.97 264.277 151.098 264.277 150.118C264.277 149.121 264.461 148.241 264.827 147.478C265.198 146.711 265.714 146.113 266.374 145.682C267.039 145.247 267.814 145.03 268.701 145.03C269.391 145.03 270.013 145.158 270.567 145.414C271.121 145.669 271.575 146.027 271.929 146.488C272.282 146.948 272.502 147.485 272.587 148.098H271.079C270.964 147.651 270.708 147.255 270.312 146.909C269.92 146.56 269.391 146.385 268.726 146.385C268.138 146.385 267.623 146.539 267.179 146.845C266.741 147.148 266.398 147.576 266.15 148.13C265.907 148.68 265.786 149.326 265.786 150.067C265.786 150.826 265.905 151.486 266.144 152.049C266.387 152.611 266.728 153.048 267.167 153.359C267.61 153.67 268.13 153.826 268.726 153.826C269.118 153.826 269.474 153.757 269.794 153.621C270.113 153.485 270.384 153.289 270.606 153.033C270.827 152.777 270.985 152.47 271.079 152.113H272.587C272.502 152.692 272.291 153.214 271.954 153.679C271.622 154.139 271.181 154.505 270.631 154.778C270.086 155.046 269.451 155.181 268.726 155.181ZM276.301 149.07V154.976H274.792V141.885H276.301V146.692H276.429C276.659 146.185 277.004 145.782 277.464 145.484C277.929 145.181 278.547 145.03 279.318 145.03C279.987 145.03 280.573 145.164 281.076 145.433C281.579 145.697 281.969 146.104 282.246 146.654C282.527 147.199 282.667 147.894 282.667 148.738V154.976H281.159V148.84C281.159 148.06 280.956 147.457 280.552 147.031C280.151 146.6 279.595 146.385 278.883 146.385C278.389 146.385 277.946 146.49 277.554 146.698C277.166 146.907 276.859 147.212 276.633 147.613C276.412 148.013 276.301 148.499 276.301 149.07ZM294.478 155.181C293.592 155.181 292.814 154.97 292.145 154.548C291.48 154.126 290.961 153.536 290.586 152.777C290.215 152.019 290.029 151.132 290.029 150.118C290.029 149.095 290.215 148.203 290.586 147.44C290.961 146.677 291.48 146.085 292.145 145.663C292.814 145.241 293.592 145.03 294.478 145.03C295.365 145.03 296.14 145.241 296.805 145.663C297.474 146.085 297.994 146.677 298.365 147.44C298.74 148.203 298.927 149.095 298.927 150.118C298.927 151.132 298.74 152.019 298.365 152.777C297.994 153.536 297.474 154.126 296.805 154.548C296.14 154.97 295.365 155.181 294.478 155.181ZM294.478 153.826C295.152 153.826 295.706 153.653 296.14 153.308C296.575 152.963 296.897 152.509 297.105 151.946C297.314 151.384 297.419 150.774 297.419 150.118C297.419 149.462 297.314 148.85 297.105 148.284C296.897 147.717 296.575 147.259 296.14 146.909C295.706 146.56 295.152 146.385 294.478 146.385C293.805 146.385 293.251 146.56 292.816 146.909C292.382 147.259 292.06 147.717 291.851 148.284C291.642 148.85 291.538 149.462 291.538 150.118C291.538 150.774 291.642 151.384 291.851 151.946C292.06 152.509 292.382 152.963 292.816 153.308C293.251 153.653 293.805 153.826 294.478 153.826ZM305.602 145.158V146.436H300.309V145.158H305.602ZM301.895 154.976V143.803C301.895 143.24 302.027 142.772 302.291 142.397C302.555 142.022 302.898 141.74 303.32 141.553C303.742 141.365 304.187 141.272 304.656 141.272C305.027 141.272 305.329 141.301 305.564 141.361C305.798 141.421 305.973 141.476 306.088 141.527L305.653 142.831C305.576 142.806 305.47 142.774 305.334 142.735C305.201 142.697 305.027 142.678 304.809 142.678C304.311 142.678 303.951 142.804 303.729 143.055C303.512 143.306 303.403 143.675 303.403 144.161V154.976H301.895ZM316.767 155.181C315.847 155.181 315.054 154.963 314.39 154.529C313.725 154.094 313.213 153.495 312.855 152.733C312.497 151.97 312.318 151.098 312.318 150.118C312.318 149.121 312.502 148.241 312.868 147.478C313.239 146.711 313.755 146.113 314.415 145.682C315.08 145.247 315.855 145.03 316.742 145.03C317.432 145.03 318.054 145.158 318.608 145.414C319.162 145.669 319.616 146.027 319.97 146.488C320.323 146.948 320.543 147.485 320.628 148.098H319.12C319.005 147.651 318.749 147.255 318.353 146.909C317.961 146.56 317.432 146.385 316.767 146.385C316.179 146.385 315.664 146.539 315.22 146.845C314.782 147.148 314.439 147.576 314.191 148.13C313.948 148.68 313.827 149.326 313.827 150.067C313.827 150.826 313.946 151.486 314.185 152.049C314.428 152.611 314.769 153.048 315.208 153.359C315.651 153.67 316.171 153.826 316.767 153.826C317.159 153.826 317.515 153.757 317.835 153.621C318.154 153.485 318.425 153.289 318.647 153.033C318.868 152.777 319.026 152.47 319.12 152.113H320.628C320.543 152.692 320.332 153.214 319.995 153.679C319.663 154.139 319.222 154.505 318.672 154.778C318.127 155.046 317.492 155.181 316.767 155.181ZM326.822 155.181C325.936 155.181 325.158 154.97 324.489 154.548C323.824 154.126 323.304 153.536 322.929 152.777C322.559 152.019 322.373 151.132 322.373 150.118C322.373 149.095 322.559 148.203 322.929 147.44C323.304 146.677 323.824 146.085 324.489 145.663C325.158 145.241 325.936 145.03 326.822 145.03C327.708 145.03 328.484 145.241 329.149 145.663C329.818 146.085 330.338 146.677 330.708 147.44C331.083 148.203 331.271 149.095 331.271 150.118C331.271 151.132 331.083 152.019 330.708 152.777C330.338 153.536 329.818 154.126 329.149 154.548C328.484 154.97 327.708 155.181 326.822 155.181ZM326.822 153.826C327.495 153.826 328.049 153.653 328.484 153.308C328.919 152.963 329.24 152.509 329.449 151.946C329.658 151.384 329.762 150.774 329.762 150.118C329.762 149.462 329.658 148.85 329.449 148.284C329.24 147.717 328.919 147.259 328.484 146.909C328.049 146.56 327.495 146.385 326.822 146.385C326.149 146.385 325.595 146.56 325.16 146.909C324.725 147.259 324.404 147.717 324.195 148.284C323.986 148.85 323.882 149.462 323.882 150.118C323.882 150.774 323.986 151.384 324.195 151.946C324.404 152.509 324.725 152.963 325.16 153.308C325.595 153.653 326.149 153.826 326.822 153.826ZM337.281 155.181C336.463 155.181 335.741 154.974 335.114 154.561C334.488 154.143 333.998 153.555 333.644 152.796C333.29 152.034 333.113 151.132 333.113 150.093C333.113 149.061 333.29 148.167 333.644 147.408C333.998 146.649 334.49 146.064 335.121 145.65C335.751 145.237 336.48 145.03 337.307 145.03C337.946 145.03 338.451 145.137 338.822 145.35C339.197 145.559 339.482 145.797 339.678 146.066C339.878 146.33 340.034 146.547 340.145 146.718H340.273V141.885H341.781V154.976H340.324V153.468H340.145C340.034 153.647 339.876 153.872 339.672 154.145C339.467 154.414 339.175 154.654 338.796 154.868C338.417 155.076 337.912 155.181 337.281 155.181ZM337.486 153.826C338.091 153.826 338.602 153.668 339.02 153.353C339.437 153.033 339.755 152.592 339.972 152.029C340.189 151.463 340.298 150.809 340.298 150.067C340.298 149.334 340.192 148.693 339.978 148.143C339.765 147.589 339.45 147.159 339.032 146.852C338.615 146.541 338.099 146.385 337.486 146.385C336.846 146.385 336.314 146.549 335.888 146.877C335.466 147.201 335.148 147.642 334.935 148.201C334.726 148.755 334.622 149.377 334.622 150.067C334.622 150.766 334.728 151.401 334.942 151.972C335.159 152.539 335.478 152.99 335.9 153.327C336.326 153.659 336.855 153.826 337.486 153.826ZM348.87 155.181C347.924 155.181 347.108 154.972 346.422 154.554C345.74 154.132 345.214 153.544 344.843 152.79C344.476 152.032 344.293 151.149 344.293 150.144C344.293 149.138 344.476 148.252 344.843 147.485C345.214 146.713 345.729 146.113 346.39 145.682C347.054 145.247 347.83 145.03 348.716 145.03C349.228 145.03 349.733 145.115 350.231 145.286C350.73 145.456 351.184 145.733 351.593 146.117C352.002 146.496 352.328 146.999 352.571 147.625C352.814 148.252 352.935 149.023 352.935 149.939V150.578H345.367V149.274H351.401C351.401 148.72 351.29 148.226 351.069 147.792C350.851 147.357 350.54 147.014 350.135 146.762C349.735 146.511 349.262 146.385 348.716 146.385C348.116 146.385 347.596 146.534 347.157 146.833C346.722 147.127 346.388 147.51 346.153 147.983C345.919 148.456 345.802 148.963 345.802 149.505V150.374C345.802 151.115 345.929 151.744 346.185 152.26C346.445 152.771 346.805 153.161 347.265 153.429C347.726 153.693 348.26 153.826 348.87 153.826C349.266 153.826 349.624 153.77 349.944 153.659C350.268 153.544 350.547 153.374 350.781 153.148C351.015 152.918 351.197 152.632 351.324 152.292L352.782 152.701C352.628 153.195 352.371 153.63 352.008 154.005C351.646 154.375 351.199 154.665 350.666 154.874C350.133 155.078 349.535 155.181 348.87 155.181Z" fill="#FFE600"/>
</svg>
